<svg width="42" height="44" viewBox="0 0 42 44" fill="none" xmlns="http://www.w3.org/2000/svg">
<g filter="url(#filter0_dii_7757_6906)">
<path d="M2 7C2 3.68629 4.68629 1 8 1H36C39.3137 1 42 3.68629 42 7V35C42 38.3137 39.3137 41 36 41H8C4.68629 41 2 38.3137 2 35V7Z" fill="white"/>
<path d="M8 1.5H36C39.0376 1.5 41.5 3.96243 41.5 7V35C41.5 38.0376 39.0376 40.5 36 40.5H8C4.96243 40.5 2.5 38.0376 2.5 35V7C2.5 3.96243 4.96243 1.5 8 1.5Z" stroke="#FDA29B"/>
<path d="M19.5 13.5H24.5M14.5 16H29.5M27.8333 16L27.2489 24.7661C27.1612 26.0813 27.1174 26.7389 26.8333 27.2375C26.5833 27.6765 26.206 28.0294 25.7514 28.2497C25.235 28.5 24.5759 28.5 23.2578 28.5H20.7422C19.4241 28.5 18.765 28.5 18.2486 28.2497C17.794 28.0294 17.4167 27.6765 17.1667 27.2375C16.8826 26.7389 16.8388 26.0813 16.7511 24.7661L16.1667 16M20.3333 19.75V23.9167M23.6667 19.75V23.9167" stroke="#B42318" stroke-width="1.66667" stroke-linecap="round" stroke-linejoin="round"/>
</g>
<defs>
<filter id="filter0_dii_7757_6906" x="0" y="0" width="44" height="44" filterUnits="userSpaceOnUse" color-interpolation-filters="sRGB">
<feFlood flood-opacity="0" result="BackgroundImageFix"/>
<feColorMatrix in="SourceAlpha" type="matrix" values="0 0 0 0 0 0 0 0 0 0 0 0 0 0 0 0 0 0 127 0" result="hardAlpha"/>
<feOffset dy="1"/>
<feGaussianBlur stdDeviation="1"/>
<feComposite in2="hardAlpha" operator="out"/>
<feColorMatrix type="matrix" values="0 0 0 0 0.0392157 0 0 0 0 0.0496732 0 0 0 0 0.0705882 0 0 0 0.05 0"/>
<feBlend mode="normal" in2="BackgroundImageFix" result="effect1_dropShadow_7757_6906"/>
<feBlend mode="normal" in="SourceGraphic" in2="effect1_dropShadow_7757_6906" result="shape"/>
<feColorMatrix in="SourceAlpha" type="matrix" values="0 0 0 0 0 0 0 0 0 0 0 0 0 0 0 0 0 0 127 0" result="hardAlpha"/>
<feOffset dy="-2"/>
<feComposite in2="hardAlpha" operator="arithmetic" k2="-1" k3="1"/>
<feColorMatrix type="matrix" values="0 0 0 0 0.0392157 0 0 0 0 0.0496732 0 0 0 0 0.0705882 0 0 0 0.05 0"/>
<feBlend mode="normal" in2="shape" result="effect2_innerShadow_7757_6906"/>
<feColorMatrix in="SourceAlpha" type="matrix" values="0 0 0 0 0 0 0 0 0 0 0 0 0 0 0 0 0 0 127 0" result="hardAlpha"/>
<feMorphology radius="1" operator="erode" in="SourceAlpha" result="effect3_innerShadow_7757_6906"/>
<feOffset/>
<feComposite in2="hardAlpha" operator="arithmetic" k2="-1" k3="1"/>
<feColorMatrix type="matrix" values="0 0 0 0 0.0392157 0 0 0 0 0.0496732 0 0 0 0 0.0705882 0 0 0 0.18 0"/>
<feBlend mode="normal" in2="effect2_innerShadow_7757_6906" result="effect3_innerShadow_7757_6906"/>
</filter>
</defs>
</svg>
