<svg width="42" height="42" viewBox="0 0 42 42" fill="none" xmlns="http://www.w3.org/2000/svg">
<path d="M0 21C0 9.40202 9.40202 0 21 0C32.598 0 42 9.40202 42 21C42 32.598 32.598 42 21 42C9.40202 42 0 32.598 0 21Z" fill="#FAFAFA"/>
<path d="M21 10.4375C18.9109 10.4375 16.8688 11.057 15.1318 12.2176C13.3948 13.3782 12.041 15.0279 11.2415 16.9579C10.4421 18.8879 10.2329 21.0117 10.6405 23.0606C11.048 25.1096 12.054 26.9916 13.5312 28.4688C15.0084 29.946 16.8904 30.952 18.9394 31.3595C20.9883 31.7671 23.1121 31.5579 25.0421 30.7585C26.9721 29.959 28.6218 28.6052 29.7824 26.8682C30.943 25.1312 31.5625 23.0891 31.5625 21C31.5593 18.1996 30.4454 15.5149 28.4653 13.5347C26.4851 11.5546 23.8004 10.4407 21 10.4375ZM29.9375 21C29.9382 21.8242 29.8244 22.6446 29.5993 23.4375H25.6881C25.9373 21.8221 25.9373 20.1779 25.6881 18.5625H29.5993C29.8244 19.3554 29.9382 20.1758 29.9375 21ZM18.3594 25.0625H23.6406C23.1203 26.7673 22.2171 28.3306 21 29.6328C19.7834 28.3303 18.8802 26.7671 18.3594 25.0625ZM17.9633 23.4375C17.6843 21.8245 17.6843 20.1755 17.9633 18.5625H24.0448C24.3238 20.1755 24.3238 21.8245 24.0448 23.4375H17.9633ZM12.0625 21C12.0618 20.1758 12.1756 19.3554 12.4007 18.5625H16.3119C16.0627 20.1779 16.0627 21.8221 16.3119 23.4375H12.4007C12.1756 22.6446 12.0618 21.8242 12.0625 21ZM23.6406 16.9375H18.3594C18.8797 15.2327 19.7829 13.6694 21 12.3672C22.2166 13.6697 23.1198 15.2329 23.6406 16.9375ZM28.9554 16.9375H25.3377C24.8818 15.2647 24.1133 13.6933 23.0729 12.3063C24.3299 12.6082 25.5068 13.1784 26.5229 13.9778C27.5389 14.7772 28.3701 15.7868 28.9595 16.9375H28.9554ZM18.9271 12.3063C17.8867 13.6933 17.1182 15.2647 16.6623 16.9375H13.0406C13.6299 15.7868 14.4611 14.7772 15.4771 13.9778C16.4932 13.1784 17.6701 12.6082 18.9271 12.3063ZM13.0406 25.0625H16.6623C17.1182 26.7353 17.8867 28.3067 18.9271 29.6937C17.6701 29.3918 16.4932 28.8216 15.4771 28.0222C14.4611 27.2228 13.6299 26.2132 13.0406 25.0625ZM23.0729 29.6937C24.1133 28.3067 24.8818 26.7353 25.3377 25.0625H28.9595C28.3701 26.2132 27.5389 27.2228 26.5229 28.0222C25.5068 28.8216 24.3299 29.3918 23.0729 29.6937Z" fill="#0A0A0A"/>
</svg>
