<svg width="26" height="26" viewBox="0 0 26 26" fill="none" xmlns="http://www.w3.org/2000/svg">
<path d="M18.0781 4.0625C15.9809 4.0625 14.1446 4.96437 13 6.48883C11.8554 4.96437 10.0191 4.0625 7.92188 4.0625C6.25242 4.06438 4.65188 4.7284 3.47139 5.90889C2.2909 7.08938 1.62688 8.68992 1.625 10.3594C1.625 17.4688 12.1662 23.2233 12.6151 23.4609C12.7334 23.5246 12.8656 23.5579 13 23.5579C13.1344 23.5579 13.2666 23.5246 13.3849 23.4609C13.8338 23.2233 24.375 17.4688 24.375 10.3594C24.3731 8.68992 23.7091 7.08938 22.5286 5.90889C21.3481 4.7284 19.7476 4.06438 18.0781 4.0625ZM13 21.8156C11.1455 20.735 3.25 15.8123 3.25 10.3594C3.25161 9.12081 3.74434 7.93344 4.62014 7.05764C5.49594 6.18184 6.68331 5.68911 7.92188 5.6875C9.89727 5.6875 11.5558 6.73969 12.2484 8.42969C12.3097 8.57871 12.4138 8.70617 12.5476 8.79587C12.6814 8.88557 12.8389 8.93346 13 8.93346C13.1611 8.93346 13.3186 8.88557 13.4524 8.79587C13.5862 8.70617 13.6903 8.57871 13.7516 8.42969C14.4442 6.73664 16.1027 5.6875 18.0781 5.6875C19.3167 5.68911 20.5041 6.18184 21.3799 7.05764C22.2557 7.93344 22.7484 9.12081 22.75 10.3594C22.75 15.8041 14.8525 20.734 13 21.8156Z" fill="#0A0A0A"/>
</svg>
