<svg width="42" height="42" viewBox="0 0 42 42" fill="none" xmlns="http://www.w3.org/2000/svg">
<path d="M0 21C0 9.40202 9.40202 0 21 0C32.598 0 42 9.40202 42 21C42 32.598 32.598 42 21 42C9.40202 42 0 32.598 0 21Z" fill="#FAFAFA"/>
<path d="M30.5266 25.8689C29.9629 24.898 29.125 22.1507 29.125 18.5625C29.125 16.4076 28.269 14.341 26.7453 12.8173C25.2216 11.2935 23.1549 10.4375 21 10.4375C18.8452 10.4375 16.7785 11.2935 15.2548 12.8173C13.7311 14.341 12.875 16.4076 12.875 18.5625C12.875 22.1517 12.0361 24.898 11.4725 25.8689C11.3285 26.1157 11.2522 26.3962 11.2512 26.6819C11.2502 26.9677 11.3246 27.2486 11.4669 27.4964C11.6091 27.7443 11.8142 27.9502 12.0614 28.0935C12.3087 28.2367 12.5893 28.3123 12.875 28.3125H17.0198C17.2073 29.2298 17.7058 30.0541 18.4311 30.6462C19.1563 31.2382 20.0638 31.5616 21 31.5616C21.9363 31.5616 22.8438 31.2382 23.569 30.6462C24.2943 30.0541 24.7928 29.2298 24.9803 28.3125H29.125C29.4107 28.3121 29.6912 28.2364 29.9383 28.0931C30.1854 27.9497 30.3903 27.7438 30.5324 27.496C30.6746 27.2482 30.7489 26.9673 30.7478 26.6817C30.7468 26.396 30.6705 26.1157 30.5266 25.8689ZM21 29.9375C20.4961 29.9373 20.0046 29.781 19.5932 29.49C19.1818 29.199 18.8707 28.7876 18.7027 28.3125H23.2974C23.1294 28.7876 22.8183 29.199 22.4069 29.49C21.9955 29.781 21.504 29.9373 21 29.9375ZM12.875 26.6875C13.6571 25.3428 14.5 22.2269 14.5 18.5625C14.5 16.8386 15.1849 15.1853 16.4038 13.9663C17.6228 12.7473 19.2761 12.0625 21 12.0625C22.724 12.0625 24.3773 12.7473 25.5962 13.9663C26.8152 15.1853 27.5 16.8386 27.5 18.5625C27.5 22.2238 28.341 25.3398 29.125 26.6875H12.875Z" fill="#0A0A0A"/>
</svg>
