<svg width="20" height="20" viewBox="0 0 20 20" fill="none" xmlns="http://www.w3.org/2000/svg">
<path d="M18.0414 17.1877C17.9865 17.2827 17.9076 17.3616 17.8125 17.4165C17.7175 17.4713 17.6097 17.5002 17.5 17.5002H2.49997C2.39031 17.5001 2.28262 17.4711 2.18769 17.4162C2.09277 17.3613 2.01396 17.2824 1.95918 17.1874C1.9044 17.0924 1.87558 16.9847 1.87561 16.875C1.87564 16.7654 1.90452 16.6576 1.95934 16.5627C3.14919 14.5056 4.98278 13.0306 7.12263 12.3314C6.06416 11.7013 5.2418 10.7412 4.78183 9.59845C4.32187 8.45573 4.24972 7.19361 4.57649 6.00592C4.90325 4.81823 5.61085 3.77064 6.59061 3.02402C7.57038 2.2774 8.76815 1.87305 9.99997 1.87305C11.2318 1.87305 12.4296 2.2774 13.4093 3.02402C14.3891 3.77064 15.0967 4.81823 15.4235 6.00592C15.7502 7.19361 15.6781 8.45573 15.2181 9.59845C14.7581 10.7412 13.9358 11.7013 12.8773 12.3314C15.0172 13.0306 16.8508 14.5056 18.0406 16.5627C18.0956 16.6576 18.1246 16.7654 18.1247 16.8751C18.1249 16.9848 18.0961 17.0926 18.0414 17.1877Z" fill="#262626"/>
</svg>
