<svg width="26" height="26" viewBox="0 0 26 26" fill="none" xmlns="http://www.w3.org/2000/svg">
<path d="M23.3248 11.1373L18.4498 16.0123C18.2974 16.1648 18.0906 16.2504 17.875 16.2504C17.6594 16.2504 17.4526 16.1648 17.3002 16.0123C17.1477 15.8598 17.062 15.6531 17.062 15.4375C17.062 15.2219 17.1477 15.0151 17.3002 14.8626L20.7888 11.375H16.7578C14.776 11.3744 12.8502 12.0326 11.2832 13.246C9.71629 14.4594 8.5971 16.1592 8.10164 18.0781C8.04777 18.2868 7.91318 18.4656 7.72747 18.5752C7.54177 18.6847 7.32016 18.7159 7.11141 18.6621C6.90265 18.6082 6.72385 18.4736 6.61433 18.2879C6.50481 18.1022 6.47355 17.8806 6.52742 17.6718C7.11203 15.4035 8.43452 13.394 10.2866 11.9598C12.1388 10.5256 14.4153 9.74819 16.7578 9.74996H20.7909L17.3002 6.26231C17.2247 6.18682 17.1648 6.0972 17.1239 5.99857C17.0831 5.89993 17.062 5.79422 17.062 5.68746C17.062 5.58071 17.0831 5.47499 17.1239 5.37636C17.1648 5.27773 17.2247 5.18811 17.3002 5.11262C17.4526 4.96016 17.6594 4.87451 17.875 4.87451C17.9818 4.87451 18.0875 4.89554 18.1861 4.93639C18.2847 4.97725 18.3744 5.03713 18.4498 5.11262L23.3248 9.98762C23.4004 10.0631 23.4603 10.1527 23.5012 10.2513C23.5421 10.35 23.5631 10.4557 23.5631 10.5625C23.5631 10.6692 23.5421 10.775 23.5012 10.8736C23.4603 10.9722 23.4004 11.0618 23.3248 11.1373ZM19.5 21.125H4.0625V8.93746C4.0625 8.72198 3.9769 8.51531 3.82452 8.36294C3.67215 8.21057 3.46549 8.12496 3.25 8.12496C3.03451 8.12496 2.82785 8.21057 2.67548 8.36294C2.5231 8.51531 2.4375 8.72198 2.4375 8.93746V21.9375C2.4375 22.153 2.5231 22.3596 2.67548 22.512C2.82785 22.6644 3.03451 22.75 3.25 22.75H19.5C19.7155 22.75 19.9222 22.6644 20.0745 22.512C20.2269 22.3596 20.3125 22.153 20.3125 21.9375C20.3125 21.722 20.2269 21.5153 20.0745 21.3629C19.9222 21.2106 19.7155 21.125 19.5 21.125Z" fill="#0A0A0A"/>
</svg>
